<svg xmlns="http://www.w3.org/2000/svg" viewBox="0 0 70 68.25"><defs><style>.cls-1{fill:#ff5c00;}</style></defs><g id="Layer_2" data-name="Layer 2"><g id="Layer_1-2" data-name="Layer 1"><path class="cls-1" d="M42.84,37.72c0,5.36,2.5,7.52,5.77,7.52a5.55,5.55,0,0,0,2-.32V30.48h0A4.07,4.07,0,0,0,49,30.19C45.29,30.19,42.84,33,42.84,37.72Z"/><path class="cls-1" d="M0,0V68.25H70V0ZM35.63,49.53H30.56a.59.59,0,0,1-.62-.38q-2.79-5.77-5.71-12h-.06c-1.75,3.91-3.68,8.17-5.54,12a.57.57,0,0,1-.53.32H13.26c-.29,0-.32-.23-.17-.41l8-15.37L13.35,18.44a.26.26,0,0,1,.2-.44h5c.29,0,.44.06.52.32,1.84,3.88,3.71,7.7,5.46,11.61h.06c1.69-3.85,3.55-7.73,5.33-11.55.15-.23.24-.38.53-.38h4.69c.24,0,.33.17.18.44l-7.7,14.78,8.17,15.84C36,49.3,35.86,49.53,35.63,49.53ZM55.9,48.1a17.29,17.29,0,0,1-7.46,1.69c-6.33,0-10.85-3.91-10.85-11.84,0-6.8,4.37-12.1,11.55-12.1a14.94,14.94,0,0,1,1.51,0V18.32a.3.3,0,0,1,.29-.29h4.7c.23,0,.29.09.29.23V44.92a20.21,20.21,0,0,0,.15,2.86C56.08,48,56.08,48,55.9,48.1Z"/></g></g></svg>