<svg xmlns="http://www.w3.org/2000/svg" viewBox="0 0 69.99 68.82"><defs><style>.cls-1{fill:#ff5c00;}</style></defs><g id="Layer_2" data-name="Layer 2"><g id="Layer_1-2" data-name="Layer 1"><path class="cls-1" d="M25.29,23.78c-1.21,0-2.46,0-2.46,0v9.75a17.83,17.83,0,0,0,2,0c3.18,0,5.13-2,5.13-4.88A4.59,4.59,0,0,0,25.29,23.78Z"/><path class="cls-1" d="M0,0V68.82H70V0ZM33.44,35C31.4,37.1,29,38.33,25,38.5l-2.15.06v9.07H16.91V19.4s4.43-.12,8.07-.12,6.31.87,8.07,2.39a8.81,8.81,0,0,1,2.82,6.68A9.29,9.29,0,0,1,33.44,35ZM44.05,47.74A14.17,14.17,0,0,1,38.13,46V41.31a14.14,14.14,0,0,0,5.92,1.82c2,0,2.77-.69,2.77-1.76s-.64-2.21-3.07-3c-4.3-1.47-6-3.22-5.92-5.67,0-4,3.32-6.94,8.47-6.94A12.39,12.39,0,0,1,52,27.17v4.76a14.43,14.43,0,0,0-5.43-1.68c-1.58,0-2.47.65-2.47,1.73s.81,1.5,3.36,2.41c4,1.38,5.62,3.4,5.67,6.5C53.08,44.82,50.05,47.93,44.05,47.74Z"/></g></g></svg>