<svg xmlns="http://www.w3.org/2000/svg" viewBox="0 0 61.78 54.97"><defs><style>.cls-1{fill:#ff5c00;}</style></defs><g id="Layer_2" data-name="Layer 2"><g id="Layer_1-2" data-name="Layer 1"><path class="cls-1" d="M50.8,17.82c-.66-.23-1.32-.44-2-.63.11-.45.21-.9.31-1.36,1.5-7.3.52-13.19-2.84-15.13s-8.5.08-13.82,4.71c-.53.46-1,.93-1.54,1.41l-1-.94c-5.58-5-11.18-7-14.53-5.1s-4.18,7.4-2.82,14.33c.13.68.29,1.36.45,2q-1.18.34-2.28.72C4.18,20.15,0,23.73,0,27.43s4.48,7.67,11.3,10c.55.19,1.11.36,1.67.52-.18.73-.35,1.47-.49,2.21-1.29,6.8-.28,12.21,2.93,14.06s8.89,0,14.31-4.79c.42-.38.85-.77,1.29-1.19.54.52,1.09,1,1.67,1.52,5.25,4.52,10.43,6.35,13.64,4.49s4.39-7.72,3-14.79c-.1-.54-.23-1.09-.37-1.65.39-.11.78-.23,1.15-.36,7.08-2.34,11.69-6.14,11.69-10C61.78,23.71,57.47,20.11,50.8,17.82ZM34.19,7.4C38.75,3.43,43,1.87,45,3s2.87,6,1.57,12.31c-.08.41-.18.82-.28,1.23A64.32,64.32,0,0,0,38,15.22a62.12,62.12,0,0,0-5.22-6.51C33.23,8.26,33.71,7.82,34.19,7.4ZM18.24,30.6c.56,1.08,1.14,2.14,1.75,3.2s1.27,2.13,1.94,3.17a55.51,55.51,0,0,1-5.69-.92C16.78,34.29,17.46,32.46,18.24,30.6Zm0-6.21a55.52,55.52,0,0,1-2-5.34c1.76-.4,3.64-.72,5.6-1-.66,1-1.29,2.06-1.9,3.12S18.8,23.31,18.24,24.39Zm1.4,3.11q1.21-2.55,2.63-5h0q1.41-2.44,3-4.77c1.83-.14,3.72-.22,5.62-.22s3.8.08,5.64.22c1,1.55,2,3.13,3,4.75s1.83,3.28,2.67,5c-.83,1.7-1.71,3.36-2.66,5h0c-.93,1.62-1.92,3.22-3,4.78-1.83.13-3.73.2-5.66.2s-3.79-.06-5.59-.18c-1.07-1.56-2.08-3.15-3-4.79S20.46,29.19,19.64,27.5ZM41.8,33.78c.62-1.08,1.22-2.17,1.79-3.28a58,58,0,0,1,2.08,5.44,55,55,0,0,1-5.77,1C40.56,35.89,41.19,34.84,41.8,33.78Zm1.77-9.39c-.58-1.08-1.17-2.15-1.78-3.21s-1.23-2.08-1.88-3.09c2,.25,3.86.58,5.63,1A55.65,55.65,0,0,1,43.57,24.39ZM30.92,10.59A55.84,55.84,0,0,1,34.56,15c-2.44-.11-4.87-.11-7.31,0C28.45,13.4,29.68,11.93,30.92,10.59ZM16.69,3.06c2.07-1.19,6.64.51,11.45,4.79.31.27.62.56.93.86a62.59,62.59,0,0,0-5.26,6.51,64.56,64.56,0,0,0-8.25,1.28c-.15-.63-.3-1.26-.42-1.9h0C14,8.66,14.75,4.19,16.69,3.06Zm-3,32.35c-.52-.15-1-.31-1.53-.48A22.47,22.47,0,0,1,4.94,31.1c-1.53-1.31-2.3-2.61-2.3-3.67,0-2.25,3.35-5.12,9-7.07.7-.24,1.41-.46,2.12-.67a64.85,64.85,0,0,0,3,7.81A63.76,63.76,0,0,0,13.68,35.41Zm14.3,12a22.32,22.32,0,0,1-6.92,4.33h0c-1.9.67-3.41.69-4.33.16-2-1.12-2.76-5.46-1.65-11.28.13-.69.28-1.37.45-2a61.59,61.59,0,0,0,8.32,1.2,63.6,63.6,0,0,0,5.31,6.56C28.77,46.73,28.38,47.09,28,47.44Zm3-3c-1.25-1.35-2.5-2.85-3.71-4.45,1.18.05,2.38.07,3.61.07s2.51,0,3.73-.08A55.9,55.9,0,0,1,31,44.46Zm16,3.67c-.37,2-1.11,3.31-2,3.83-2,1.13-6.11-.33-10.6-4.2q-.78-.66-1.56-1.41A62.89,62.89,0,0,0,38,39.77a61,61,0,0,0,8.37-1.29c.12.51.24,1,.33,1.5A22.28,22.28,0,0,1,47,48.13ZM49.26,35h0c-.34.11-.68.22-1,.32a60.75,60.75,0,0,0-3.13-7.83,60.41,60.41,0,0,0,3-7.71c.63.19,1.25.38,1.84.58,5.72,2,9.2,4.88,9.2,7.12C59.14,29.82,55.38,32.92,49.26,35Z"/><path class="cls-1" d="M30.89,33a5.52,5.52,0,1,0-5.52-5.52A5.52,5.52,0,0,0,30.89,33Z"/></g></g></svg>