<svg xmlns="http://www.w3.org/2000/svg" viewBox="0 0 70.58 68.66"><defs><style>.cls-1{fill:#ff5c00;}</style></defs><g id="Layer_2" data-name="Layer 2"><g id="Layer_1-2" data-name="Layer 1"><path class="cls-1" d="M23.68,19h-.07c-.67,3.76-2.44,10.11-3.75,15.08h7.7C26.66,30.54,24.48,22.78,23.68,19Z"/><path class="cls-1" d="M53.64,32.92c0-.23.07-.39.07-.55,0-1.73-.84-4.94-4.17-4.94-3.08,0-4.4,2.7-4.72,5.55h6.45A15.15,15.15,0,0,0,53.64,32.92Z"/><path class="cls-1" d="M0,68.66H70.58V0H0ZM49.76,22.75c7,0,9.43,5.87,9.43,10.65a16.37,16.37,0,0,1-.25,3.4.49.49,0,0,1-.42.42,48.59,48.59,0,0,1-5.36.22h-8.4c.08,4.3,2.14,7.19,7,7.19a12.54,12.54,0,0,0,5.23-1c.22-.09.38-.06.38.23v4a.67.67,0,0,1-.32.64,14.56,14.56,0,0,1-6.44,1.22C42.13,49.73,39,43.47,39,36.51,39,28.94,42.86,22.75,49.76,22.75Zm-39.27,26L19.6,16.91a9.72,9.72,0,0,0,.32-2.63c0-.23.1-.32.26-.32h6.74c.22,0,.32.06.38.32L37.5,48.83c.07.26,0,.42-.25.42H32a.44.44,0,0,1-.48-.32L28.84,39.3H18.54L16,48.89c-.07.26-.16.36-.48.36H10.81C10.49,49.25,10.43,49.15,10.49,48.77Z"/></g></g></svg>