<svg xmlns="http://www.w3.org/2000/svg" viewBox="0 0 70.4 68.38"><defs><style>.cls-1{fill:#ff5c00;}</style></defs><g id="Layer_2" data-name="Layer 2"><g id="Layer_1-2" data-name="Layer 1"><path class="cls-1" d="M25.45,18.81c-1.29,0-2.51.06-3.08.1V31.27a25.85,25.85,0,0,0,2.6.07c3.75,0,7.28-1.32,7.28-6.41C32.25,20.86,29.75,18.81,25.45,18.81Z"/><path class="cls-1" d="M0,0V68.38H70.4V0ZM24.87,36.47c-1.22,0-1.64-.07-2.5-.07V48.71c0,.25-.1.38-.39.38H17c-.26,0-.38-.09-.38-.38V14.26h0c0-.23.06-.39.32-.39,2-.09,5.07-.16,8.24-.16C34.14,13.71,38,18.58,38,24.83,38,33,32.12,36.47,24.87,36.47Zm30.25-8.88c0,.26-.09.32-.35.32a18.37,18.37,0,0,0-6.06.64V48.74c0,.26-.1.38-.39.38h-5c-.26,0-.39-.09-.39-.38V28.36h0c0-.39,0-1.32-.16-3.11,0-.26,0-.32.26-.42a33.31,33.31,0,0,1,11.74-2.21c.26,0,.38.07.38.32Z"/></g></g></svg>