<svg xmlns="http://www.w3.org/2000/svg" viewBox="0 0 70 56.95"><defs><style>.cls-1{fill:#ff5c00;}</style></defs><g id="Layer_2" data-name="Layer 2"><g id="Layer_1-2" data-name="Layer 1"><path class="cls-1" d="M69.79,31.71a20.9,20.9,0,0,0-3-8.14,23,23,0,0,0-5.21-5.81h0L39.67.91l0,0A4.59,4.59,0,0,0,36.84,0,5,5,0,0,0,34,.87a2.94,2.94,0,0,0-1.39,2.24,2.65,2.65,0,0,0,1.07,2.14q2.11,1.68,4.23,3.39c1.37,1.11,2.78,2.25,4.18,3.36L15.18,12c-3.08,0-5.17,1.45-5.6,3.86A3.88,3.88,0,0,0,10.47,19a4.15,4.15,0,0,0,3.24,1.46H27L2.58,38.45l-.09.07a6.13,6.13,0,0,0-2.45,4,4,4,0,0,0,.77,3A4.22,4.22,0,0,0,4.22,47.1a6.5,6.5,0,0,0,4-1.49L21.41,34.82c-.06.53-.12,1.3-.12,1.86A17.94,17.94,0,0,0,22,40.8a21.69,21.69,0,0,0,4.67,8.07,24,24,0,0,0,8.15,5.86A26.27,26.27,0,0,0,45.52,57h0a26.25,26.25,0,0,0,10.69-2.26,24.11,24.11,0,0,0,8.15-5.88,21.77,21.77,0,0,0,4.66-8.09,20.2,20.2,0,0,0,.73-9ZM45.8,46c-8.24,0-14.92-6-14.92-13.34S37.56,19.26,45.8,19.26s14.91,6,14.91,13.35S54,46,45.8,46Zm8.6-14.52a7.47,7.47,0,0,1-2.3,5.76,9.2,9.2,0,0,1-12.63,0,7.46,7.46,0,0,1-2.3-5.75,7.58,7.58,0,0,1,2.73-5.36,9.23,9.23,0,0,1,11.77,0A7.58,7.58,0,0,1,54.4,31.43Z"/></g></g></svg>