<svg xmlns="http://www.w3.org/2000/svg" viewBox="0 0 70 70"><defs><style>.cls-1{fill:#ff5c00;}</style></defs><g id="Layer_2" data-name="Layer 2"><g id="Layer_1-2" data-name="Layer 1"><path class="cls-1" d="M0,0V70H70V0ZM40,38h-9.1v25.9H24.45V38h-9.1V35.12l.05,0V32.27l12.25-.05c6.74,0,12.29,0,12.29.07A21.66,21.66,0,0,1,40,35.17ZM63.7,58.55c-1.12,2.93-3.85,4.9-7.75,5.55a21.72,21.72,0,0,1-5.34,0,13.24,13.24,0,0,1-7.12-3.73,12.47,12.47,0,0,1-1.82-2.69l.66-.42L45,55.68l2-1.15.45.61A9.49,9.49,0,0,0,50,57.7c2.27,1.17,5.32,1,6.82-.35a2.63,2.63,0,0,0,.93-2.1,2.66,2.66,0,0,0-.53-1.79c-.56-.77-1.68-1.4-4.83-2.8-3.62-1.54-5.16-2.52-6.59-4a9.86,9.86,0,0,1-1.93-3.5,13.35,13.35,0,0,1-.1-4.5A8.52,8.52,0,0,1,51,32a17,17,0,0,1,5.32.17l0,0a8.44,8.44,0,0,1,4.37,2.5,11.05,11.05,0,0,1,1.68,2.24c0,.11-3,2.15-4.86,3.29-.07.05-.35-.24-.63-.7a4,4,0,0,0-3.29-2c-2.1-.14-3.5,1-3.5,2.8a2.75,2.75,0,0,0,.31,1.33c.47,1,1.35,1.54,4.06,2.73,5,2.15,7.18,3.57,8.49,5.6A10.18,10.18,0,0,1,63.7,58.55Z"/></g></g></svg>