<svg xmlns="http://www.w3.org/2000/svg" viewBox="0 0 70.58 68.66"><defs><style>.cls-1{fill:#ff5c00;}</style></defs><g id="Layer_2" data-name="Layer 2"><g id="Layer_1-2" data-name="Layer 1"><path class="cls-1" d="M0,68.66H70.58V0H0Zm42-43.8a33.84,33.84,0,0,1,11.81-2.21c.26,0,.39.06.39.32v4.62c0,.26-.1.32-.39.32a19.14,19.14,0,0,0-6.13.64V48.8c0,.25-.09.38-.38.38h-5c-.26,0-.38-.09-.38-.38V28.39h0c0-.38,0-1.31-.16-3.11A.37.37,0,0,1,42,24.86ZM17.65,14.21c0-.25.09-.41.38-.41H23.1c.26,0,.32.09.32.38V43.89H36.64c.26,0,.35.1.29.38l-.8,4.56a.47.47,0,0,1-.49.39H18.13v0c-.39,0-.48-.16-.48-.48Z"/></g></g></svg>