<svg xmlns="http://www.w3.org/2000/svg" viewBox="0 0 70 68.18"><defs><style>.cls-1{fill:#ff5c00;}</style></defs><g id="Layer_2" data-name="Layer 2"><g id="Layer_1-2" data-name="Layer 1"><path class="cls-1" d="M45,34.84a4.61,4.61,0,0,0-4.54-3.73c-3.39,0-5.27,3-5.27,6.9s1.88,6.6,5.23,6.6a4.65,4.65,0,0,0,4.54-3.73,5.77,5.77,0,0,0,.17-1.54V36.21A7.06,7.06,0,0,0,45,34.84Z"/><path class="cls-1" d="M0,0V68.18H70V0ZM27,48.38H21.74V19.5H27Zm18.81,0-.21-3.3h-.09a7.49,7.49,0,0,1-6.81,3.77c-5,0-8.92-4.24-8.92-10.67,0-7,4.33-11.14,9.34-11.14,2.88,0,4.93,1.2,5.88,2.74h.08V18h5.27V42.51c0,2.14.09,4.46.17,5.87Z"/></g></g></svg>