<svg id="레이어_1" data-name="레이어 1" xmlns="http://www.w3.org/2000/svg" viewBox="0 0 625.96 284.37"><defs><style>.cls-1{fill:#231815;}</style></defs><title>name_log</title><polygon class="cls-1" points="78.43 168.22 78.43 113.09 267.28 112.01 267.28 167.14 78.43 168.22"/><polygon class="cls-1" points="68.37 284.37 0 284.37 127.42 0 195.8 0 68.37 284.37"/><polygon class="cls-1" points="219.51 284.37 151.13 284.37 278.56 0 346.93 0 219.51 284.37"/><polygon class="cls-1" points="370.64 284.37 302.27 284.37 429.69 0 498.06 0 370.64 284.37"/><polygon class="cls-1" points="557.59 284.37 625.96 284.37 498.54 0 430.17 0 557.59 284.37"/><polygon class="cls-1" points="356.37 171.71 422.69 167.16 347.03 0 278.65 0 356.37 171.71"/></svg>